<svg width="393" height="292" viewBox="0 0 393 292" fill="none" xmlns="http://www.w3.org/2000/svg">
<path d="M196.5 292L0 292.5V17C88.5964 39.3671 132.078 43.1777 196.5 17V292Z" fill="#EF5350"/>
<path d="M393 292H58.5L196.5 17.3448C276.126 -6.58606 323.94 -4.96288 393 17.3448V292Z" fill="#EF5350"/>
<path d="M8.69336 247.214C30.6653 242.859 53.3002 250.405 67.7686 266.933C70.2821 269.804 72.529 272.93 74.4482 276.227C75.2022 277.521 76.0844 278.746 77.0654 279.866C84.2579 288.082 96.2829 290.495 106.301 285.713C108.205 284.802 110.248 284.126 112.363 283.712C120.929 282.012 129.771 284.775 135.72 290.95L137.346 292.638L135.003 292.645L0.00292969 293L-1 293.003V249.944L-0.336914 249.707C2.5609 248.669 5.57566 247.831 8.69336 247.214Z" fill="#EF5350" stroke="#FBFBFB" stroke-width="2"/>
<path d="M199.36 273.313C203.533 255.931 221.062 245.188 238.445 249.36C247.389 251.507 254.782 257.151 259.243 265.24L259.503 265.696C262.246 270.37 266.811 273.756 272.094 275.024C275.536 275.851 279.159 275.745 282.552 274.717L283.221 274.525C286.571 273.626 290.001 273.589 293.415 274.408C302.009 276.471 308.083 283.601 309.233 291.862L309.392 293H200.818L200.573 292.355C198.337 286.473 197.784 279.882 199.36 273.313Z" fill="#ADD1ED" stroke="#FBFBFB" stroke-width="2"/>
<path d="M55.0811 252.236C64.5472 245.327 76.1582 242.395 87.7646 243.985C100.003 245.662 110.77 252.082 118.051 262.062H118.05C119.413 263.921 120.632 265.888 121.681 267.907C124.301 272.927 129.213 276.387 134.824 277.156C134.971 277.176 135.117 277.195 135.263 277.211L135.699 277.251L135.711 277.252L136.272 277.291C142.069 277.604 147.582 275.067 151.126 270.426C152.799 268.228 154.803 266.27 157.081 264.614C163.104 260.219 170.499 258.353 177.882 259.364C185.676 260.432 192.526 264.521 197.159 270.872L197.573 271.454C201.778 277.514 203.467 284.839 202.34 292.15H202.339L202.34 292.151L202.331 292.206L202.209 292.998H36.7871L36.7188 292.071C36.4677 288.648 36.6084 285.17 37.1523 281.692C39.0084 269.785 45.3799 259.318 55.0811 252.236Z" fill="#FF9169" stroke="#FBFBFB" stroke-width="2"/>
<path d="M394 293H258.868L258.575 292.52C255.682 287.758 254.094 282.306 254.004 276.603C253.87 268.09 257.084 260.034 263.058 253.926C267.121 249.771 272.241 246.788 277.858 245.31C288.695 242.458 300.422 245.487 308.472 253.219H308.471C310.279 254.953 311.867 256.885 313.196 258.957L313.418 259.293C318.132 266.302 326.739 269.555 334.988 267.385L335.15 267.342C343.572 265.054 349.422 257.702 349.716 249.048C350.263 232.744 358.746 217.68 372.405 208.758C376.988 205.759 381.982 203.541 387.245 202.156C389.109 201.666 390.982 201.285 392.855 201.011L394 200.843V293Z" fill="#EF5350" stroke="#FBFBFB" stroke-width="2"/>
<path d="M35.7866 159.466C35.7866 159.353 35.8093 159.065 35.8206 158.94C35.9 158.029 35.9341 157.118 35.9341 156.207C35.9341 156.006 35.832 155.893 35.6467 155.893H33.2345C32.9358 155.893 32.1683 155.893 31.7637 155.931C31.6843 155.942 31.605 155.957 31.5445 155.957C31.4991 155.957 31.4764 155.931 31.4424 155.882L31.2231 155.594C31.2231 155.594 31.1777 155.545 31.1777 155.507C31.1777 155.481 31.2004 155.481 31.2117 155.481L31.5218 155.507C32.0738 155.545 32.7846 155.572 33.2912 155.572H35.6467C35.832 155.572 35.9341 155.458 35.9341 155.258V153.821C35.9341 153.621 35.832 153.507 35.6467 153.507H34.4293C34.2554 153.507 34.1759 153.606 34.1192 153.783C34.0285 154.033 33.8206 154.195 33.3858 154.195C33.019 154.195 32.9018 154.022 32.9018 153.757C32.9018 153.659 32.9132 153.405 32.9245 153.22C32.9585 152.672 32.9812 151.598 32.9812 150.812C32.9812 150.35 32.9812 149.564 32.9131 149.201C32.8905 149.087 32.8338 148.827 32.8338 148.74C32.8338 148.626 32.9245 148.604 33.0077 148.604C33.1702 148.604 33.7525 148.864 34.1684 149.091C34.2931 149.152 34.399 149.178 34.5238 149.178H38.4748C38.6223 149.178 38.7168 149.152 38.7735 149.065C38.8075 149.016 38.8302 148.978 38.8642 148.94C39.0495 148.69 39.1289 148.604 39.197 148.604C39.3444 148.604 40.4938 149.239 40.4938 149.488C40.4938 149.575 40.4371 149.639 40.3577 149.7C40.1157 149.889 40.059 149.889 40.059 151.159C40.059 151.685 40.059 152.634 40.1044 153.122C40.1157 153.246 40.1157 153.409 40.1157 153.534C40.1157 153.935 39.7376 154.233 39.3331 154.233C39.0117 154.233 38.8983 154.082 38.8605 153.821C38.8378 153.621 38.7584 153.507 38.5731 153.507H37.4237C37.2384 153.507 37.1364 153.621 37.1364 153.821V155.258C37.1364 155.458 37.2384 155.572 37.4237 155.572H39.5826C40.146 155.572 40.18 155.56 40.5694 155.061C40.7774 154.8 40.8227 154.774 40.8908 154.774C41.0647 154.774 41.8776 155.511 41.8776 155.734C41.8776 155.897 41.7982 155.897 41.3596 155.897H37.42C37.2347 155.897 37.1326 156.01 37.1326 156.211C37.144 157.035 37.1666 158.509 37.1666 159.058C37.1666 159.345 37.1553 159.519 37.0759 159.644C36.9398 159.855 36.5125 159.957 36.2025 159.957C35.8357 159.957 35.779 159.708 35.779 159.47L35.7866 159.466ZM38.5693 151.114C38.7546 151.114 38.8567 151.001 38.8567 150.8V149.813C38.8567 149.613 38.7546 149.5 38.5693 149.5H34.4709C34.2856 149.5 34.1835 149.613 34.1835 149.813V150.8C34.1835 151.001 34.2856 151.114 34.4709 151.114H38.5693ZM38.5693 153.186C38.7546 153.186 38.8567 153.073 38.8567 152.872V151.749C38.8567 151.549 38.7546 151.435 38.5693 151.435H34.4709C34.2856 151.435 34.1835 151.549 34.1835 151.749V152.872C34.1835 153.073 34.2856 153.186 34.4709 153.186H38.5693Z" fill="#FBFBFB"/>
<path d="M50.3087 159.38C50.3087 159.066 50.3767 158.056 50.3994 157.395C50.4108 156.794 50.4562 155.308 50.4562 155.134C50.4562 154.911 50.3314 154.896 50.2255 155.07C49.7567 155.867 49.3181 156.457 48.9967 156.805C48.872 156.941 48.8228 156.979 48.7888 156.979C48.7661 156.979 48.7548 156.968 48.7548 156.941C48.7548 156.915 48.7774 156.854 48.8228 156.756C49.0875 156.17 49.4429 155.156 49.7642 154.158C49.9608 153.523 50.1423 152.896 50.2822 152.385C50.3389 152.185 50.2822 152.033 50.0629 152.033C49.8096 152.045 49.4088 152.06 49.2576 152.083L49.1442 152.094C49.1215 152.094 49.0875 152.083 49.0421 152.018L48.8228 151.731C48.7774 151.667 48.7774 151.655 48.7774 151.644C48.7774 151.618 48.8001 151.618 48.8115 151.618H48.8341C49.0194 151.629 49.8777 151.693 50.1537 151.693C50.3389 151.693 50.4637 151.591 50.4637 151.379V150.094C50.4637 149.893 50.3616 149.78 50.165 149.795L49.095 149.822C48.8077 149.822 48.751 149.81 48.751 149.757C48.751 149.731 48.7737 149.72 48.9476 149.67C49.4089 149.534 50.1763 149.247 50.8985 148.933C51.2426 148.782 51.4051 148.695 51.6207 148.547C51.7454 148.461 51.8059 148.423 51.8513 148.423C51.9647 148.423 52.0932 148.521 52.5054 148.861C52.8041 149.111 53.0347 149.36 53.0347 149.447C53.0347 149.546 52.944 149.546 52.8494 149.546C52.5281 149.546 52.1159 149.583 51.7454 149.644C51.5715 149.67 51.4808 149.795 51.4808 149.98V151.342C51.4808 151.58 51.6887 151.591 51.7681 151.466C52.0101 151.043 52.0782 150.929 52.2029 150.929C52.3655 150.929 53.0083 151.64 53.0083 151.841C53.0083 152.015 52.8003 152.026 52.5734 152.026H51.7681C51.5828 152.026 51.4808 152.139 51.4808 152.34V153.137C51.4808 153.3 51.5375 153.413 51.666 153.512C51.874 153.663 52.0781 153.81 52.2294 153.962C52.6415 154.347 52.9288 154.786 52.9288 155.361C52.9288 155.848 52.6642 156.034 52.3882 156.034C52.1575 156.034 51.9647 155.822 51.9269 155.372C51.8816 154.786 51.8248 154.347 51.6736 153.984C51.6055 153.822 51.477 153.784 51.477 154.049C51.477 156.147 51.511 158.295 51.511 158.707C51.511 159.504 51.2804 159.841 50.7435 159.841C50.3654 159.841 50.2973 159.629 50.2973 159.368L50.3087 159.38ZM53.0536 159.418C53.0536 159.331 53.0763 159.055 53.0876 158.956C53.1897 158.007 53.1784 156.559 53.1784 155.459C53.1784 153.947 53.1671 153.81 53.0158 153.262C52.9931 153.175 52.9818 153.126 52.9818 153.088C52.9818 153.001 53.0272 152.964 53.1066 152.964C53.1519 152.964 53.3372 153.028 53.7266 153.175C54.1274 153.327 54.6113 153.523 54.6113 153.701C54.6113 153.788 54.5887 153.837 54.4752 153.939C54.3278 154.064 54.2559 154.102 54.2559 154.4V156.336C54.2559 157.096 54.2446 157.871 54.29 158.635C54.3013 158.824 54.3013 158.998 54.3013 159.183C54.3013 159.595 53.9686 159.818 53.4846 159.818C53.1406 159.818 53.0498 159.667 53.0498 159.418H53.0536ZM53.5489 152.026C53.5149 151.727 53.4809 151.429 53.4241 151.115C53.3674 150.816 53.2653 150.502 53.1254 150.177C53.0574 150.014 53.0461 149.992 53.0461 149.965C53.0461 149.939 53.0574 149.928 53.0801 149.928C53.1481 149.928 53.6661 150.253 54.0556 150.676C54.445 151.1 54.6756 151.561 54.6756 152.026C54.6756 152.449 54.4336 152.763 54.1236 152.763C53.7568 152.763 53.5943 152.514 53.5489 152.026ZM55.6624 151.875C55.6624 151.701 55.7078 151.402 55.7191 151.175C55.7418 150.827 55.7305 150.427 55.6397 150.052C55.583 149.867 55.4545 149.776 55.2843 149.791C54.6983 149.803 54.1123 149.791 53.5602 149.78C53.1595 149.769 53.1141 149.742 53.1141 149.693C53.1141 149.667 53.1255 149.644 53.3901 149.595C54.3883 149.41 55.2163 149.209 55.8931 149.047C56.4564 148.91 56.9139 148.771 57.3071 148.623C57.5037 148.547 57.5944 148.498 57.7532 148.385C57.8553 148.309 57.9007 148.271 57.9498 148.271C58.1351 148.271 59.0652 149.145 59.0652 149.345C59.0652 149.508 58.8346 149.508 58.6304 149.508C58.3658 149.508 58.0784 149.534 57.7684 149.583C57.2844 149.659 56.6643 149.72 56.1048 149.757C55.9573 149.769 55.9082 149.909 56.014 150.018C56.2674 150.268 56.4261 150.457 56.566 150.653C56.774 150.952 56.8421 151.19 56.8421 151.515C56.8421 151.928 56.566 152.351 56.1539 152.351C55.8439 152.351 55.67 152.151 55.67 151.878L55.6624 151.875ZM55.0424 159.168C55.0424 159.043 55.0537 158.907 55.065 158.695C55.1331 157.508 55.1218 156.347 55.1218 155.16C55.1218 154.037 55.065 153.637 54.9365 153.137C54.9138 153.051 54.9025 152.964 54.9025 152.914C54.9025 152.85 54.9478 152.801 55.0045 152.801C55.0726 152.801 55.4885 152.964 56.1539 153.364C56.2938 153.451 56.4186 153.489 56.566 153.489H57.3487C57.4961 153.489 57.602 153.425 57.7154 153.304C57.912 153.043 58.0368 152.952 58.1275 152.952C58.3355 152.952 59.1938 153.527 59.1938 153.803C59.1938 153.89 59.1597 153.965 59.0917 154.015C58.8951 154.151 58.8157 154.189 58.8157 154.476L58.8043 155.712C58.793 156.623 58.8497 157.848 58.8497 158.521C58.8497 159.134 58.5964 159.557 58.0822 159.557C57.7721 159.557 57.6814 159.357 57.6587 159.172C57.6474 159.036 57.602 158.858 57.3714 158.858H56.4866C56.2674 158.858 56.2106 158.994 56.1879 159.157C56.1312 159.47 55.8779 159.644 55.4885 159.644C55.0991 159.644 55.0424 159.421 55.0424 159.172V159.168ZM57.4167 155.86C57.602 155.86 57.7041 155.746 57.7041 155.546V154.124C57.7041 153.924 57.602 153.81 57.4167 153.81H56.4866C56.3014 153.81 56.1993 153.924 56.1993 154.124V155.546C56.1993 155.746 56.3014 155.86 56.4866 155.86H57.4167ZM57.7041 156.495C57.7041 156.295 57.602 156.181 57.4167 156.181H56.4866C56.3014 156.181 56.1993 156.295 56.1993 156.495V158.219C56.1993 158.419 56.3014 158.533 56.4866 158.533H57.4167C57.602 158.533 57.7041 158.419 57.7041 158.219V156.495ZM57.326 152.688C57.326 152.661 57.3374 152.623 57.4054 152.449C57.5529 152.064 57.7381 151.527 57.8893 151.062C58.0254 150.623 58.1313 150.238 58.1313 150.101C58.1313 150.052 58.12 149.977 58.0973 149.89C58.086 149.841 58.0746 149.788 58.0746 149.765C58.0746 149.716 58.12 149.678 58.1767 149.678C58.3128 149.678 58.9594 150.064 59.1976 150.253C59.3828 150.389 59.4735 150.476 59.4735 150.566C59.4735 150.68 59.3941 150.74 59.2769 150.827C59.1749 150.903 59.0577 150.979 58.9556 151.115C58.5208 151.689 58.0708 152.151 57.7041 152.476C57.4621 152.688 57.3941 152.725 57.36 152.725C57.3374 152.725 57.326 152.714 57.326 152.688Z" fill="#FBFBFB"/>
<path d="M67.7499 158.941C67.7499 158.827 67.7499 158.729 67.7613 158.54C67.8747 156.706 67.8633 154.88 67.8633 152.971C67.8633 152.369 67.8407 150.248 67.7953 149.772C67.7839 149.658 67.7272 149.386 67.7045 149.299C67.6819 149.197 67.6592 149.099 67.6592 149.038C67.6592 148.978 67.6819 148.94 67.7386 148.94C67.9238 148.94 68.6119 149.201 69.0921 149.401C69.2169 149.451 69.3228 149.477 69.4475 149.477H75.2134C75.3608 149.477 75.4667 149.413 75.5688 149.292C75.7313 149.069 75.9242 148.842 76.0301 148.842C76.204 148.842 77.1114 149.443 77.1114 149.704C77.1114 149.742 77.0887 149.791 77.032 149.866C76.8353 150.116 76.7106 150.192 76.7106 150.778C76.7106 152.49 76.824 158.044 76.824 158.358C76.824 158.77 76.48 159.096 75.9847 159.096C75.6179 159.096 75.5234 158.895 75.5234 158.683C75.5234 158.483 75.4213 158.37 75.236 158.37H69.3681C69.1262 158.37 69.0921 158.57 69.0808 158.683C69.0581 158.895 68.9787 159.133 68.7821 159.345C68.6082 159.534 68.3586 159.595 68.196 159.595C67.8066 159.595 67.7499 159.345 67.7499 158.944V158.941ZM71.3796 153.598C71.5648 153.598 71.6669 153.485 71.6669 153.284V150.112C71.6669 149.912 71.5648 149.798 71.3796 149.798H69.3454C69.1602 149.798 69.0581 149.912 69.0581 150.112V153.284C69.0581 153.485 69.1602 153.598 69.3454 153.598H71.3796ZM71.3796 158.044C71.5648 158.044 71.6669 157.931 71.6669 157.731V154.233C71.6669 154.033 71.5648 153.92 71.3796 153.92H69.3454C69.1602 153.92 69.0581 154.033 69.0581 154.233V157.731C69.0581 157.931 69.1602 158.044 69.3454 158.044H71.3796ZM73.149 149.802C72.9638 149.802 72.8617 149.916 72.8617 150.116V153.288C72.8617 153.489 72.9638 153.602 73.149 153.602H75.2512C75.4364 153.602 75.5385 153.489 75.5385 153.288V150.116C75.5385 149.916 75.4364 149.802 75.2512 149.802H73.149ZM73.149 153.923C72.9638 153.923 72.8617 154.037 72.8617 154.237V157.734C72.8617 157.935 72.9638 158.048 73.149 158.048H75.2512C75.4364 158.048 75.5385 157.935 75.5385 157.734V154.237C75.5385 154.037 75.4364 153.923 75.2512 153.923H73.149Z" fill="#FBFBFB"/>
<path d="M86.7947 149.412C86.9082 149.114 86.9573 148.962 86.98 148.701C87.0027 148.463 87.048 148.414 87.1047 148.414C87.1615 148.414 87.2409 148.452 87.3127 148.49C87.5887 148.626 88.0462 148.826 88.3109 148.977C88.3903 149.027 88.4734 149.064 88.4734 149.178C88.4734 149.265 88.4167 149.329 88.3373 149.34C88.1974 149.352 88.1294 149.378 87.9932 149.59C87.8798 149.779 87.9592 149.915 88.1521 149.915H88.7154C88.878 149.915 88.9574 149.877 89.0708 149.73C89.2901 149.442 89.3582 149.367 89.4489 149.367C89.6455 149.367 90.4017 150.255 90.4017 150.528C90.4017 150.641 90.3677 150.701 90.1597 150.777C90.0123 150.826 89.9404 150.94 89.6644 151.39C88.8477 152.724 88.2504 153.499 87.2636 154.324C86.4582 154.997 85.6113 155.424 84.7606 155.696C84.6472 155.734 84.5413 155.745 84.5186 155.745C84.4846 155.745 84.4619 155.734 84.4619 155.696C84.4619 155.658 84.5073 155.62 84.5867 155.571C85.3542 155.099 85.9289 154.611 86.6889 153.798C86.825 153.635 86.7569 153.522 86.6321 153.435C86.496 153.348 86.4242 153.174 86.3902 152.947C86.3561 152.698 86.2881 152.448 86.1936 152.248C86.1028 152.063 85.9402 152.063 85.7928 152.199C85.4828 152.475 85.1954 152.698 84.9421 152.849C84.7946 152.936 84.7341 152.962 84.7001 152.962C84.6774 152.962 84.6661 152.936 84.6661 152.925C84.6661 152.898 84.6774 152.875 84.874 152.637C85.5962 151.753 86.4242 150.365 86.7909 149.416L86.7947 149.412ZM87.0707 157.08C87.2182 156.819 87.2447 156.743 87.2787 156.494C87.29 156.418 87.324 156.343 87.3921 156.343C87.4375 156.343 87.5056 156.392 87.6114 156.467C87.7589 156.581 88.2995 156.978 88.4394 157.091C88.5869 157.205 88.6587 157.254 88.6587 157.405C88.6587 157.518 88.6247 157.556 88.4734 157.594C88.2428 157.658 88.1521 157.692 87.9328 157.881C87.1048 158.592 86.2087 159.118 85.2786 159.428C85.1311 159.477 85.0139 159.503 84.9685 159.503C84.9345 159.503 84.9119 159.492 84.9119 159.466C84.9119 159.428 84.9345 159.401 85.0744 159.292C85.7625 158.728 86.5906 157.919 87.0707 157.08ZM90.6739 157.492L90.6853 158.403C90.6853 158.853 90.6739 159.163 90.4546 159.416C90.224 159.677 89.8119 159.855 89.4338 159.855C89.2712 159.855 89.2031 159.779 89.1464 159.617C88.9839 159.156 88.6398 158.944 88.1483 158.717C88.0689 158.679 88.0462 158.653 88.0462 158.619C88.0462 158.585 88.0916 158.57 88.1256 158.57C88.2164 158.57 88.6663 158.63 88.9309 158.63C89.5283 158.63 89.551 158.479 89.551 157.832V156.123C89.551 155.923 89.4489 155.809 89.2637 155.809H88.2314C87.8874 155.809 87.1048 155.821 86.9006 155.847L86.6813 155.874C86.6359 155.874 86.6132 155.847 86.5792 155.798L86.3486 155.511C86.3259 155.484 86.3032 155.446 86.3032 155.424C86.3032 155.401 86.3145 155.397 86.3486 155.397H86.3713C86.7947 155.446 87.876 155.484 88.4281 155.484H91.3923C91.691 155.484 91.759 155.382 91.9443 155.121C92.2884 154.634 92.3337 154.573 92.4283 154.573C92.6362 154.573 93.555 155.473 93.555 155.647C93.555 155.809 93.3016 155.809 92.9462 155.809H90.9726C90.7873 155.809 90.6853 155.923 90.6853 156.123V157.496L90.6739 157.492ZM87.8269 152.373C87.929 152.221 87.9176 152.123 87.7588 152.059C87.6227 152.01 87.4942 151.836 87.4261 151.495C87.3921 151.322 87.3467 151.182 87.3014 151.072C87.2106 150.872 87.0367 150.898 86.9006 151.061L86.4053 151.609C86.2805 151.734 86.3032 151.885 86.4734 151.945C86.9573 152.131 87.2069 152.407 87.2787 152.683C87.3241 152.845 87.4526 152.883 87.5547 152.747C87.6454 152.622 87.7626 152.471 87.8307 152.373H87.8269ZM88.689 150.236H87.7588C87.6114 150.236 87.4942 150.301 87.4035 150.422C87.3241 150.535 87.3467 150.66 87.5282 150.709C87.9176 150.822 88.171 151.046 88.239 151.272C88.2844 151.446 88.413 151.473 88.5037 151.322C88.7116 150.959 88.7797 150.811 88.8931 150.573C88.9725 150.384 88.8931 150.236 88.6852 150.236H88.689ZM89.9404 153.995C89.6304 153.995 88.825 154.006 88.7116 154.032L88.5491 154.059C88.5037 154.059 88.4697 154.01 88.447 153.972L88.2277 153.696C88.1937 153.658 88.171 153.632 88.171 153.62C88.171 153.594 88.1937 153.583 88.2163 153.583H88.239C88.8024 153.658 89.5812 153.669 89.9631 153.669H90.0765C90.3071 153.669 90.3866 153.583 90.5605 153.307C90.7911 152.944 90.8818 152.807 90.9839 152.807C91.1465 152.807 92.0388 153.556 92.0388 153.806C92.0388 153.98 91.8649 153.991 91.4301 153.991H89.9366L89.9404 153.995ZM94.3262 155.36C94.2695 155.458 94.2355 155.496 94.1788 155.496C94.1221 155.496 94.0654 155.469 93.9255 155.36C92.0086 153.798 90.8818 151.987 90.2164 148.977C90.1483 148.664 90.1597 148.603 90.2164 148.603C90.2731 148.603 90.2958 148.652 90.413 148.928C91.0444 150.414 91.6305 151.363 92.1258 151.964C92.2505 152.127 92.4131 152.116 92.5266 151.926C92.8253 151.439 93.0899 150.966 93.2714 150.539C93.3621 150.327 93.2714 150.176 93.0521 150.176H92.708C92.5114 150.176 92.0086 150.214 91.7666 150.24C91.6645 150.252 91.6305 150.252 91.5926 150.252C91.5473 150.252 91.5019 150.187 91.4679 150.138L91.2826 149.9C91.2373 149.836 91.2146 149.802 91.2146 149.787C91.2146 149.76 91.2486 149.76 91.2599 149.76H91.2826C91.5813 149.798 92.2241 149.847 92.6135 149.847H93.0256C93.1844 149.847 93.2789 149.798 93.381 149.647C93.657 149.246 93.7364 149.148 93.8196 149.148C93.9028 149.148 93.9784 149.197 94.141 149.321C94.3149 149.458 94.7043 149.771 94.8858 149.945C95.0597 150.108 95.2752 150.308 95.2752 150.456C95.2752 150.618 95.1845 150.705 94.8971 150.705C94.6098 150.705 94.5191 150.77 94.2998 150.955C94.1032 151.129 93.7477 151.443 93.3356 151.779C93.1277 151.942 92.9689 152.093 92.8177 152.203C92.6551 152.339 92.6438 152.501 92.8063 152.641C93.5285 153.276 94.3905 153.851 95.4114 154.203C95.5588 154.252 95.5739 154.278 95.5739 154.316C95.5739 154.365 95.5286 154.392 95.4114 154.441C94.8027 154.702 94.504 155.042 94.3187 155.352L94.3262 155.36ZM94.4775 158.69C94.4775 159.065 94.2808 159.439 93.9028 159.439C93.6381 159.439 93.4415 159.326 93.2033 158.914C92.6173 157.915 92.1938 157.401 91.3318 156.755C91.2184 156.668 91.207 156.641 91.207 156.619C91.207 156.596 91.2297 156.569 91.2637 156.569C91.3091 156.569 91.3771 156.581 91.5964 156.634C92.3904 156.819 92.9878 157.057 93.4907 157.36C94.2846 157.832 94.4775 158.297 94.4775 158.694V158.69Z" fill="#FBFBFB"/>
<path d="M104.262 158.57C104.262 158.495 104.284 158.419 104.356 158.366C104.696 158.06 105.165 157.501 105.997 156.427C107.559 154.461 108.133 153.326 108.133 152.203C108.133 150.903 107.335 150.215 106.455 150.226C105.846 150.237 105.4 150.521 104.719 151.156C104.557 151.296 104.356 151.065 104.519 150.888C104.931 150.43 105.256 150.109 105.479 149.893C105.925 149.511 106.36 149.27 107.203 149.27C108.481 149.27 109.513 150.279 109.525 151.617C109.536 153.02 109.09 153.825 106.027 157.066C105.744 157.361 105.782 157.576 106.167 157.576H108.75C109.135 157.576 109.464 157.281 109.77 156.453C109.842 156.238 110.05 156.249 110.05 156.465C110.05 156.491 110.05 156.514 110.039 156.555C109.71 158.151 109.627 158.763 109.264 158.763C108.232 158.737 107.222 158.726 106.368 158.726C105.876 158.726 105.369 158.737 105.006 158.752C104.689 158.763 104.466 158.79 104.409 158.79C104.315 158.79 104.258 158.688 104.258 158.574L104.262 158.57Z" fill="#FBFBFB"/>
<path d="M118.101 154.465C118.101 151.058 119.39 149.273 121.303 149.273C122.944 149.273 124.014 150.956 124.014 153.663C124.014 157.209 122.653 158.934 120.789 158.934C119.099 158.934 118.101 157.096 118.101 154.468V154.465ZM122.547 154.54C122.547 150.967 122.033 149.682 120.951 149.682C120.259 149.682 119.556 150.563 119.556 153.686C119.556 157.387 120.108 158.521 121.152 158.521C121.821 158.521 122.547 157.743 122.547 154.54Z" fill="#FBFBFB"/>
<path d="M131.64 158.57C131.64 158.495 131.662 158.419 131.734 158.366C132.074 158.06 132.543 157.501 133.375 156.427C134.936 154.461 135.511 153.326 135.511 152.203C135.511 150.903 134.713 150.215 133.832 150.226C133.224 150.237 132.778 150.521 132.097 151.156C131.934 151.296 131.734 151.065 131.897 150.888C132.309 150.43 132.634 150.109 132.857 149.893C133.303 149.511 133.738 149.27 134.581 149.27C135.859 149.27 136.891 150.279 136.903 151.617C136.914 153.02 136.468 153.825 133.405 157.066C133.122 157.361 133.159 157.576 133.545 157.576H136.127C136.513 157.576 136.842 157.281 137.148 156.453C137.22 156.238 137.428 156.249 137.428 156.465C137.428 156.491 137.428 156.514 137.417 156.555C137.088 158.151 137.005 158.763 136.642 158.763C135.609 158.737 134.6 158.726 133.745 158.726C133.254 158.726 132.747 158.737 132.384 158.752C132.067 158.763 131.844 158.79 131.787 158.79C131.692 158.79 131.636 158.688 131.636 158.574L131.64 158.57Z" fill="#FBFBFB"/>
<path d="M145.088 155.346C145.088 152.782 146.823 150.166 149.78 149.119C149.814 149.107 149.852 149.107 149.874 149.107C150.048 149.107 150.075 149.3 149.897 149.387C147.844 150.435 146.494 152.692 146.494 155.089C146.494 157.346 147.198 158.469 148.23 158.469C148.944 158.469 149.674 157.894 149.674 156.389C149.674 154.987 148.982 154.117 148.101 154.117C147.856 154.117 147.598 154.246 147.387 154.397C147.198 154.537 147.08 154.333 147.247 154.181C147.999 153.478 148.525 153.225 148.914 153.225C150.007 153.225 150.944 154.246 150.944 155.637C150.944 157.728 149.394 158.968 147.776 158.968C146.158 158.968 145.088 157.577 145.088 155.346Z" fill="#FBFBFB"/>
<path d="M30.9515 97.4625C31.6245 99.8974 34.2447 100.502 37.1748 100.502C38.8347 100.502 39.9235 100.317 41.6325 99.8936C41.8404 99.8407 42.124 99.8142 42.3055 99.8142C43.4208 99.8142 44.4833 100.767 44.4833 101.614C44.4833 103.175 40.9557 103.493 38.052 103.493C34.9403 103.493 30.1953 102.673 30.1953 98.6005C30.1953 98.1771 30.3768 96.7479 30.6604 96.7479C30.8154 96.7479 30.8154 96.9861 30.944 97.4625H30.9515ZM32.8722 84.978C34.2976 85.4544 36.1389 85.6661 37.6172 85.6661C38.3431 85.6661 39.122 85.5338 39.8215 85.5338C41.2204 85.5338 42.7516 87.36 42.7516 88.3657C42.7516 88.948 42.1051 89.0538 40.4453 89.1068C39.0464 89.1861 37.776 89.7419 36.7098 90.3507C36.5283 90.4565 36.4489 90.483 36.3733 90.483C36.2977 90.483 36.2712 90.4301 36.2712 90.3771C36.2712 90.3242 36.2712 90.2713 36.4527 90.0595C36.6606 89.8213 37.8516 88.6304 37.8516 88.3657C37.8516 88.2598 37.8516 88.1804 37.0992 88.101C33.651 87.7305 32.2521 85.3221 32.2521 85.031C32.2521 84.8986 32.3051 84.8457 32.3807 84.8457C32.4563 84.8457 32.6416 84.8986 32.8722 84.978Z" fill="#FBFBFB"/>
<path d="M62.4041 86.5781C62.4041 86.7634 62.457 87.081 62.5591 87.6368C62.6877 88.2984 62.82 89.1454 62.82 89.8599C62.82 92.3213 62.147 94.4613 60.9522 96.5521C59.4739 99.1458 57.3226 101.709 55.3263 101.709C54.4718 101.709 53.6135 101.1 53.0199 100.174C52.2411 98.9567 51.8252 97.1041 51.8252 95.3611C51.8252 92.6086 53.0691 90.2569 54.7024 88.5366C56.5437 86.6046 59.5004 85.0469 63.13 85.0469C65.1528 85.0469 67.0697 85.4439 68.7295 86.6084C71.0888 88.2757 72.3327 90.8127 72.3327 93.6975C72.3327 97.002 71.1152 99.7016 68.911 101.475C67.2512 102.825 65.0734 103.698 62.5062 104.144C62.0638 104.223 61.4967 104.303 61.1829 104.303C60.922 104.303 60.7405 104.276 60.7405 104.091C60.7405 103.906 60.9749 103.879 61.5194 103.668C63.7993 102.794 65.7464 101.471 67.1453 99.8074C68.6237 98.0607 69.4025 95.8413 69.4025 93.2741C69.4025 90.7069 68.4422 88.6198 66.8618 87.4288C65.7993 86.6348 64.4231 86.1849 63.1035 86.1849C62.6385 86.1849 62.4041 86.3172 62.4041 86.5819V86.5781ZM59.421 86.7634C56.1543 88.219 54.1051 91.3647 54.1051 94.6995C54.1051 96.1816 54.5209 98.348 55.8178 98.348C56.6723 98.348 57.3718 97.8187 58.3586 96.4424C59.213 95.2515 59.8104 94.1928 60.3813 92.8733C61.1073 91.1795 61.5723 89.3306 61.5723 87.4515C61.5723 86.7369 61.3908 86.3399 60.9258 86.3399C60.5099 86.3399 60.0184 86.4987 59.421 86.7634Z" fill="#FBFBFB"/>
<path d="M78.6167 106.005C78.5902 106.031 78.5373 106.031 78.4843 106.031C78.3028 106.031 78.0117 105.842 78.0117 105.63C78.0117 105.551 78.0381 105.472 78.1175 105.389C81.7094 101.99 83.0478 98.0839 83.0478 90.1894C83.0478 89.6563 83.0214 89.1194 83.0214 88.556C83.0214 83.4178 82.734 82.2155 82.6811 82C83.7322 82.0265 85.1462 82.189 85.9062 82.3743C86.1671 82.4272 86.2994 82.6692 86.2994 82.8809C86.2994 83.07 86.22 83.2288 86.065 83.3347C85.9326 83.4405 85.8305 83.4972 85.7247 83.5502C85.6453 83.6031 85.5659 83.6296 85.4638 83.656C85.4109 85.1003 85.3844 89.1685 85.3579 90.5864C86.3032 89.006 86.9043 87.5881 87.1425 85.8489C87.6416 86.0644 89.6871 87.2138 89.6871 88.0721C89.6871 88.367 89.4791 88.5523 89.135 88.5523C89.0027 88.5523 88.8742 88.5258 88.7154 88.4729C87.7966 89.7319 86.2767 91.0439 85.3315 91.7358C85.2786 94.0119 85.0706 95.8834 84.6774 97.4336C85.2824 97.702 89.188 99.5735 89.188 101.714C89.188 102.889 88.481 103.373 87.929 103.373C87.377 103.373 86.9308 102.946 86.7228 102.197C86.3826 100.995 85.5961 99.3883 84.4657 98.2653C83.3919 102.012 81.3691 103.993 78.6167 105.997V106.005ZM78.4616 94.0988C78.4616 93.509 78.696 93.0024 79.0401 92.6016C80.0383 91.5051 80.4844 90.0079 80.5373 87.4104C80.5373 87.1685 80.7718 87.0361 80.9835 87.0361C81.165 87.0361 81.3238 87.1155 81.3502 87.2781C81.5355 88.5371 81.6905 89.9285 81.6905 91.1838C81.6905 95.2255 80.1706 95.5204 79.5921 95.5204C79.3577 95.5204 78.4654 95.441 78.4654 94.1026L78.4616 94.0988ZM97.1883 102.288C97.1883 105.525 93.8574 106.114 93.3054 106.114C93.0709 106.114 92.8328 106.035 92.7534 105.767C92.4131 104.67 91.6002 104.428 90.6285 104.186C89.9807 104.063 89.6568 103.903 89.6568 103.706C89.6568 103.438 89.7891 103.09 89.9442 103.116C90.9423 103.275 92.8025 103.358 92.9878 103.358C93.8536 103.358 94.6665 102.715 94.6665 101.914V85.5389H93.8536C92.5945 85.5389 90.3903 85.5654 88.9763 85.7279C88.6889 85.4595 88.5036 84.8735 88.4772 84.3895C89.9442 84.605 92.5152 84.658 94.2204 84.658H97.9974C98.2848 84.1211 99.4644 82.3025 99.937 82.3025C99.99 82.3025 100.069 82.3025 100.122 82.3289C100.829 82.7032 102.72 84.3631 102.72 85.0852C102.72 85.3272 102.561 85.5389 102.194 85.5389H97.1052V99.0253C97.1052 99.7739 97.1581 101.54 97.1845 102.076V102.292L97.1883 102.288Z" fill="#FBFBFB"/>
<path d="M118.369 84.6803C118.369 85.3495 118.342 86.0716 118.342 86.8202C118.342 88.2645 118.422 90.8885 119.575 93.9094C121.62 92.1702 124.165 89.0396 124.978 86.6312C125.817 87.1114 128.203 88.6918 128.203 89.4933C128.203 89.9735 127.73 90.0264 127.522 90.0264C127.314 90.0264 127.05 90 126.762 89.8941C124.796 91.8223 122.12 93.6674 119.915 94.7639C121.934 99.2858 125.556 101.774 129.122 103.033C129.307 103.086 129.356 103.218 129.356 103.328C129.356 103.57 129.171 103.834 129.069 103.864C128.15 104.08 127.129 104.454 126.577 105.176C126.498 105.282 126.392 105.335 126.263 105.335C125.95 105.335 119.681 102.099 118.104 91.7694C117.212 98.7527 113.855 103.384 105.748 106.084C105.695 106.11 105.669 106.11 105.616 106.11C105.355 106.11 105.196 105.842 105.196 105.6C105.196 105.468 105.249 105.331 105.378 105.278C114.951 100.999 115.79 93.0247 115.79 88.0188C115.79 85.7994 115.711 83.7653 115.477 82.4004H115.711C119.303 82.4004 119.382 83.2284 119.382 83.4174C119.382 83.4174 119.329 84.0337 118.358 84.1661V84.6727L118.369 84.6803ZM107.06 94.9C107.06 93.9623 107.767 93.1343 108.266 92.8394C109.998 91.7429 110.943 89.4139 111.257 87.3533C111.284 87.1378 111.465 87.032 111.65 87.032C112.176 87.032 112.229 87.3269 112.229 89.2249C112.229 93.4519 110.603 96.4237 108.425 96.4237C107.427 96.4237 107.06 95.5692 107.06 94.9Z" fill="#FBFBFB"/>
<path d="M142.729 83.7882C142.831 83.9205 142.884 84.0264 142.884 84.2381C142.884 84.5557 143.039 84.6351 143.557 84.6616C145.088 84.741 145.655 85.138 145.655 85.7467C145.655 86.5671 144.619 87.4934 142.207 88.3139C141.817 88.4462 141.583 88.658 141.352 89.1344C140.861 90.1401 140.343 91.1193 139.874 91.8868C139.746 92.0986 139.693 92.2044 139.693 92.3103C139.693 92.3897 139.746 92.4162 139.795 92.4162C139.874 92.4162 139.95 92.3897 140.131 92.3103C140.729 92.0456 140.959 91.9927 141.326 91.9927C142.286 91.9927 143.088 92.6014 143.557 93.6865C143.636 93.8718 143.685 93.9247 143.791 93.9247C143.897 93.9247 143.973 93.8453 144.101 93.6601C144.593 92.9455 145.553 91.5957 146.177 90.9076C147.186 89.796 148.275 88.9756 149.625 88.9756C150.975 88.9756 152.502 90.2195 152.502 91.5428C152.502 92.6808 151.803 93.1572 150.895 93.6071C149.444 94.3217 146.956 95.2745 145.19 96.042C144.517 96.3331 144.362 96.7037 144.362 97.1536C144.362 97.5771 144.388 98.027 144.388 98.4504C144.388 99.3768 144.309 101.12 142.99 101.12C142.184 101.12 141.954 100.299 141.954 99.6112C141.954 99.1877 142.033 98.2349 142.033 98.0497C142.033 97.9438 141.98 97.785 141.825 97.785C141.541 97.785 139.829 99.1612 139.829 100.802C139.829 102.178 141.126 102.443 142.37 102.443C143.485 102.443 144.627 102.205 145.534 101.967C146.026 101.834 146.57 101.702 147.039 101.702C147.791 101.702 148.57 102.178 148.57 103.052C148.57 104.825 145.148 105.143 143.878 105.143C142.324 105.143 140.509 105.01 139.288 104.005C138.483 103.343 138.044 102.364 138.044 101.279C138.044 99.5582 139.575 98.0799 141.182 96.8625C141.806 96.3861 142.037 95.9362 142.037 95.0098C142.037 94.3217 141.908 92.9455 140.974 92.9455C140.403 92.9455 139.912 93.2895 139.47 93.713C138.823 94.3217 138.279 95.248 137.965 96.1744C137.681 97.0213 137.11 97.4977 136.203 97.4977C135.295 97.4977 134.959 97.1007 134.959 96.439C134.959 95.3274 136.384 94.0041 137.761 92.3141C138.77 91.0702 139.81 89.3536 139.81 88.9831C139.81 88.8243 139.708 88.7714 139.575 88.7714C139.265 88.7714 138.747 89.036 138.097 89.036C136.725 89.036 135.53 87.3157 135.53 86.1815C135.53 86.0492 135.556 85.9433 135.685 85.9433C135.813 85.9433 135.946 85.9962 136.411 86.2609C137.11 86.6579 137.81 86.8431 138.562 86.8431C140.04 86.8431 140.532 86.6049 140.532 85.7316C140.532 85.0434 140.195 84.5406 139.753 84.0907C139.674 84.0113 139.651 83.9583 139.651 83.8789C139.651 83.5878 140.687 83.3496 141.258 83.3496C141.749 83.3496 142.426 83.429 142.736 83.7995L142.729 83.7882ZM142.313 85.6144C142.26 85.7202 142.233 85.879 142.233 85.9319C142.233 86.0643 142.313 86.0907 142.441 86.0907C142.57 86.0907 142.751 86.0378 143.012 85.9319C143.402 85.7731 143.659 85.5879 143.659 85.4026C143.659 85.138 142.959 85.085 142.804 85.085C142.57 85.085 142.415 85.3762 142.313 85.6144ZM144.774 94.3709C144.774 94.4503 144.827 94.5297 144.929 94.5297C145.084 94.5297 145.708 94.2121 145.939 94.0797C146.899 93.524 149.568 92.1477 149.568 90.9038C149.568 90.5597 149.258 90.2421 148.816 90.2421C146.691 90.2421 144.77 94.076 144.77 94.3671L144.774 94.3709Z" fill="#FBFBFB"/>
<path d="M29 138.894V116.413C29 115.91 29.2835 115.619 29.7713 115.619H34.6713C35.1591 115.619 35.4426 115.725 35.4426 116.201C35.4426 116.678 35.159 116.837 34.6978 116.837H30.9547C30.467 116.837 30.1834 117.128 30.1834 117.631V138.894C30.1834 139.397 29.9528 139.688 29.5936 139.688C29.2079 139.688 29.0038 139.397 29.0038 138.894H29Z" fill="#FBFBFB"/>
<path d="M52.3851 117.918C52.3851 118.262 51.6932 119.029 51.489 119.797C51.3869 120.194 51.4625 120.326 51.6705 120.326C52.2338 120.326 53.595 119.77 54.1054 119.559C54.4116 119.426 54.7973 119.32 55.0808 119.32C55.8257 119.32 56.389 119.982 56.389 120.538C56.389 121.226 55.9806 121.597 55.0543 121.914C54.1053 122.232 53.0278 122.47 52.1317 122.708C51.7461 122.814 51.5419 122.867 51.3113 122.999C50.9786 123.184 50.8235 123.555 50.8235 124.349C50.8235 124.614 50.9256 124.746 51.1827 124.746C51.3377 124.746 51.5419 124.72 51.8746 124.64C52.748 124.428 54.0562 124.164 55.0543 124.164C58.6726 124.164 61.3382 126.546 61.3382 130.274C61.3382 133.234 59.8258 135.378 57.6707 136.675C56.3096 137.495 54.8237 137.972 53.387 138.316C52.8501 138.448 51.7952 138.607 51.334 138.607C51.1789 138.607 51.0769 138.527 51.0769 138.421C51.0769 138.316 51.1298 138.236 51.489 138.104C52.0523 137.892 53.0543 137.495 53.8218 137.072C56.5138 135.59 58.5403 133.397 58.5403 130.115C58.5403 128.633 58.0526 127.309 57.1792 126.413C56.5138 125.725 55.6404 125.302 54.5893 125.302C53.9239 125.302 53.4626 125.408 53.2282 126.308C52.8425 127.843 52.2036 129.431 51.2016 130.962C51.0466 131.2 51.0201 131.438 51.0466 131.888C51.0731 132.232 51.1223 132.629 51.1223 133.053C51.1223 133.608 50.816 134.641 50.0182 134.641C49.4019 134.641 49.2734 134.217 49.1222 133.9C49.0692 133.794 49.0201 133.741 48.8915 133.741C48.7894 133.741 48.71 133.82 48.4832 134.032C47.33 135.09 45.6097 136.52 44.0217 136.52C42.6379 136.52 42.3809 135.249 42.3809 134.376C42.3809 131.045 45.8441 127.737 48.2034 126.228C48.7403 125.884 48.8462 125.566 48.8953 125.011L48.9974 123.793C49.0239 123.343 48.8953 123.185 48.589 123.185C48.2299 123.185 48.0749 123.211 47.7157 123.211C45.2543 123.211 44.1238 121.12 44.1238 120.75C44.1238 120.591 44.1994 120.538 44.328 120.538C44.5851 120.538 45.4547 120.961 47.4056 120.961C47.8934 120.961 48.3811 120.935 48.8159 120.882C49.02 120.855 49.3036 120.723 49.3528 120.3C49.4057 119.956 49.4284 119.347 49.4284 118.553C49.4284 118.024 49.1978 117.362 49.1222 117.124C49.0692 116.965 49.0466 116.886 49.0466 116.833C49.0466 116.753 49.0995 116.674 49.228 116.674C49.4322 116.674 52.3813 117.256 52.3813 117.918H52.3851ZM48.1278 131.805C48.642 131.223 48.6911 130.693 48.6911 129.82C48.6911 128.947 48.6912 128.417 48.7176 127.914C48.7441 127.464 48.4605 127.279 48.1278 127.57C46.4604 128.973 44.691 131.589 44.691 133.098C44.691 133.416 44.7666 133.68 45.1522 133.68C45.8706 133.68 47.693 132.278 48.1278 131.801V131.805ZM51.8444 125.695C51.0995 125.854 50.7933 126.066 50.7404 126.542C50.6874 126.965 50.6383 127.812 50.6874 128.342C50.7404 128.818 50.9445 128.924 51.2772 128.5C51.6364 128.051 52.2263 126.78 52.3548 126.118C52.4078 125.854 52.3283 125.589 51.8406 125.695H51.8444Z" fill="#FBFBFB"/>
<path d="M75.5539 117.073C75.9623 117.628 76.1286 117.708 77.1646 118.025C78.1476 118.317 78.8282 118.608 78.8282 119.428C78.8282 120.619 77.5464 121.307 75.4707 121.863C74.7902 122.048 74.5444 122.26 74.2722 123.345C73.4556 126.65 72.1965 129.799 71.1908 131.361C70.4535 132.499 69.773 133.187 68.8429 133.187C68.1888 133.187 67.6973 132.71 67.6973 132.049C67.6973 131.572 68.0262 131.122 68.2984 130.752C69.7994 128.74 70.8354 126.759 71.7088 124.43C72.1171 123.345 72.2532 122.869 72.2532 122.498C72.2532 122.181 72.0642 121.995 71.5159 121.942C70.8619 121.889 70.1775 121.598 69.5801 121.148C69.0357 120.751 68.6803 120.063 68.6803 119.375C68.6803 119.216 68.6803 118.793 68.8996 118.793C69.0924 118.793 69.4176 119.111 69.9356 119.375C70.5632 119.693 71.1643 119.799 71.8449 119.825C72.6086 119.852 73.0169 119.719 73.0169 118.687C73.0169 118.052 72.6616 117.523 72.2268 117.099C72.1436 117.02 72.0906 116.887 72.0906 116.781C72.0906 116.384 73.0737 116.199 73.5652 116.199C74.465 116.199 75.0927 116.437 75.5577 117.073H75.5539ZM84.749 120.937C85.8946 121.413 86.9608 122.286 86.9608 123.874C86.9608 124.907 86.2236 125.701 85.2973 125.701C84.6432 125.701 84.042 125.304 83.6072 125.118C83.2518 124.96 82.87 124.907 82.5977 124.933C81.6714 125.012 81.2328 125.383 80.9871 125.886C80.7678 126.336 80.7148 126.918 80.7413 127.712C80.7678 128.612 81.0967 130.752 81.4521 131.996C81.5882 132.472 81.834 132.737 82.352 132.922C83.2518 133.24 85.8153 134.351 85.8153 135.86C85.8153 136.627 85.2406 137.236 84.6696 137.236C84.371 137.236 84.0949 137.13 83.7962 136.866C83.5505 136.654 83.0325 136.151 82.352 135.675C81.8604 135.357 81.6412 135.516 81.5882 135.807C81.2593 137.474 79.6789 138.745 77.3612 138.745C74.8507 138.745 73.0245 137.183 73.0245 135.228C73.0245 133.274 75.2893 132.268 77.5276 132.268H78.3177C78.8357 132.268 79.1344 132.03 79.1344 131.5C79.1344 130.918 79.0512 129.992 79.0815 129.304C79.2176 125.549 80.6354 125.02 82.8472 123.829C83.3387 123.564 83.5278 123.22 83.5278 122.77C83.5278 122.215 83.0363 121.394 82.3557 120.732C82.2726 120.653 82.1931 120.547 82.1931 120.441C82.1931 120.336 82.2763 120.309 82.3557 120.309C82.628 120.309 84.0458 120.653 84.7566 120.944L84.749 120.937ZM77.0247 134.053C76.208 134.053 74.1323 134.185 74.1323 135.217C74.1323 136.037 75.3308 136.567 76.5596 136.567C78.416 136.567 79.1534 135.561 79.1534 134.661C79.1534 134.105 78.1968 134.053 77.0247 134.053ZM75.1418 119.269C75.1418 119.428 75.2779 119.481 75.3876 119.481C75.5501 119.481 76.2874 119.243 76.6693 119.005C76.7789 118.925 76.8319 118.846 76.8319 118.766C76.8319 118.687 76.7487 118.555 76.5596 118.422C76.3706 118.264 75.9585 118.078 75.8224 118.078C75.467 118.078 75.1418 118.925 75.1418 119.269Z" fill="#FBFBFB"/>
<path d="M94.141 134.342C95.6534 131.537 96.8066 128.867 97.6308 125.824C97.835 125.056 97.9144 124.633 97.9144 124.448C97.9144 124.183 97.7858 124.051 97.5287 124.051H97.1431C94.4246 124.051 93.4756 121.827 93.4756 121.51C93.4756 121.404 93.5285 121.351 93.5777 121.351C93.6533 121.351 93.7062 121.378 93.9104 121.483C94.4737 121.775 95.4492 121.933 96.3982 121.96C97.3208 121.986 98.0126 121.96 98.3491 121.616C98.6554 121.298 98.6819 120.795 98.6819 119.763C98.6819 119.101 98.5004 118.096 98.0391 117.593C97.7329 117.249 97.5249 117.064 97.5249 116.878C97.5249 116.561 98.5004 116.27 99.0637 116.27C99.8086 116.27 100.27 116.508 100.833 116.931C101.037 117.09 101.37 117.381 101.37 117.672C101.37 117.805 101.317 117.937 101.268 118.043C101.215 118.149 101.139 118.281 101.139 118.413C101.139 118.89 103.011 119.34 103.295 119.34C103.601 119.34 103.831 119.287 104.141 119.287C104.833 119.287 105.193 119.684 105.193 120.319C105.193 122.198 102.86 123.045 100.984 123.68C100.368 123.892 100.088 124.104 99.9069 124.977C99.3662 127.544 98.5987 130.69 97.5212 133.707C96.7763 135.771 95.9294 137.197 94.7762 137.197C94.1599 137.197 93.6987 136.429 93.6987 135.662C93.6987 135.212 93.9029 134.762 94.1335 134.338L94.141 134.342ZM100.708 120.194C100.655 120.406 100.58 120.776 100.58 120.935C100.58 121.067 100.656 121.2 100.837 121.2C101.223 121.2 102.504 120.591 102.504 120.168C102.504 119.797 101.506 119.4 101.196 119.4C100.939 119.4 100.863 119.559 100.708 120.194ZM102.274 131.938C102.557 133.076 102.916 133.817 103.99 134.399C105.117 135.008 106.402 135.113 107.631 135.113C108.784 135.113 109.454 134.875 110.274 134.875C111.019 134.875 112.735 135.378 112.735 136.596C112.735 137.919 110.607 137.972 109.556 137.972H109.352C107.582 137.972 105.453 137.813 103.888 136.94C102.376 136.093 101.733 134.796 101.733 133C101.733 132.788 101.809 131.624 102.092 131.624C102.194 131.624 102.221 131.73 102.274 131.941V131.938ZM103.245 124.901C103.245 124.372 106.039 123.26 108.221 123.26C109.707 123.26 112.58 123.525 112.58 125.563C112.58 126.039 112.274 126.542 111.529 126.542C111.144 126.542 110.682 126.463 109.964 126.463C109.068 126.463 108.066 126.754 107.219 127.098C107.091 127.151 106.784 127.257 106.656 127.257C106.603 127.257 106.527 127.23 106.527 127.151C106.527 127.098 106.554 127.045 106.705 126.913C106.86 126.78 108.115 125.775 108.115 125.457C108.115 124.928 105.729 124.663 103.884 124.981C103.729 125.007 103.552 125.034 103.472 125.034C103.419 125.034 103.242 125.034 103.242 124.901H103.245Z" fill="#FBFBFB"/>
<path d="M120.864 139.688C120.376 139.688 120.093 139.45 120.093 139.079C120.093 138.682 120.376 138.471 120.864 138.471H124.584C125.072 138.471 125.356 138.18 125.356 137.677V116.409C125.356 115.906 125.537 115.615 125.946 115.615C126.278 115.615 126.535 115.906 126.535 116.409V138.89C126.535 139.393 126.252 139.684 125.764 139.684H120.864V139.688Z" fill="#FBFBFB"/>
<path d="M135.787 118.184C137.455 118.184 138.892 120.38 138.892 121.859C138.892 122.123 138.816 122.335 138.404 123.076C137.712 124.32 136.147 127.836 136.147 130.006C136.147 130.959 136.479 131.409 136.763 131.409C137.122 131.409 137.406 130.959 138.071 129.265C138.404 128.418 138.479 128.286 138.608 128.286C138.737 128.286 138.763 128.392 138.763 128.551C138.763 128.815 138.687 129.689 138.559 130.43C138.275 132.097 138.275 132.627 138.275 133.103C138.275 133.5 138.43 133.844 138.79 134.664C138.945 135.009 139.073 135.432 139.073 135.829C139.073 136.491 138.483 137.073 137.689 137.073C136.895 137.073 136.203 136.252 135.636 135.114C134.865 133.553 134.532 131.254 134.532 129.746C134.532 127.602 135.073 125.753 135.61 123.715C135.867 122.736 136.018 121.915 136.018 120.936C136.018 119.957 135.965 119.639 135.659 118.713C135.606 118.554 135.557 118.422 135.557 118.342C135.557 118.263 135.61 118.184 135.787 118.184ZM149.327 133.076C149.97 132.971 150.404 132.865 150.609 132.865C151.429 132.865 152.121 133.447 152.121 134.347C152.121 134.903 151.837 135.406 151.225 135.644C150.249 136.014 148.302 136.067 147.251 136.067C145.841 136.067 144.276 135.75 143.379 134.982C142.43 134.188 142.098 133.024 142.098 132.415C142.098 132.256 142.124 132.177 142.226 132.177C142.533 132.177 142.79 133.315 146.049 133.315C146.945 133.315 148.177 133.262 149.331 133.076H149.327ZM150.945 121.36C150.945 122.895 148.484 123.053 147.406 123.053C144.045 123.053 142.506 120.91 142.506 120.433C142.506 120.354 142.559 120.301 142.635 120.301C142.918 120.301 143.686 120.566 145.175 120.566C146.457 120.566 147.433 120.301 148.51 119.93C149.047 119.745 149.176 119.719 149.331 119.719C149.996 119.719 150.945 120.46 150.945 121.36Z" fill="#FBFBFB"/>
<path d="M164 136.195C164 137.942 162.639 139.318 160.949 139.318C159.259 139.318 157.947 137.916 157.947 136.169C157.947 134.422 159.308 133.076 160.998 133.076C162.689 133.076 164 134.505 164 136.199V136.195ZM159.025 136.169C159.025 137.281 159.898 138.207 160.976 138.207C162.053 138.207 162.927 137.333 162.927 136.222C162.927 135.11 162.053 134.157 160.953 134.157C159.853 134.157 159.029 135.057 159.029 136.169H159.025Z" fill="#FBFBFB"/>
</svg>
