<svg width="737" height="904" viewBox="0 0 737 904" fill="none" xmlns="http://www.w3.org/2000/svg">
<path d="M722.497 602.75C708.779 626.215 685.75 643.361 659.324 649.764C645.19 653.193 630.884 653.544 616.764 650.807C572.564 642.221 527.571 662.555 504.867 701.392C500.727 708.474 497.384 716.065 495.004 723.957C489.272 742.676 481.29 760.825 471.273 777.958C436.263 837.846 379.86 879.797 312.512 896.126C247.006 911.999 179.136 901.356 121.366 866.095C63.6095 830.885 23.0564 775.387 7.18274 709.881C-8.30323 645.96 1.43603 579.488 34.6143 522.733C69.6051 462.879 125.995 420.876 193.376 404.566C205.945 401.492 218.772 399.4 231.5 398.302C265.719 395.273 296.509 375.788 313.851 346.122C314.748 344.588 315.631 343.003 316.449 341.379C333.261 308.95 332.339 270.752 313.993 239.139C306.302 225.929 300.535 211.523 296.887 196.341C287.164 156.194 293.288 114.408 314.122 78.7691C336.12 41.1396 371.545 14.7746 413.877 4.5339C455.11 -5.47383 497.79 1.21694 534.008 23.3089C570.225 45.4009 595.708 80.3104 605.684 121.524C615.407 161.67 609.283 203.457 588.429 239.128C581.637 250.746 573.537 261.381 564.333 270.758C558.199 276.981 552.878 283.986 548.471 291.525C531.93 319.82 529.45 354.848 541.83 385.206C557.846 424.477 595.591 450.396 637.992 451.274C655.69 451.637 672.494 456.6 687.988 466.051C711.27 480.231 726.973 501.76 733.389 528.237C739.534 553.681 735.686 580.114 722.484 602.698L722.497 602.75Z" fill="#EF5350"/>
</svg>
