<svg width="246" height="141" viewBox="0 0 246 141" fill="none" xmlns="http://www.w3.org/2000/svg">
<path d="M25 140.75C11.21 140.75 0 129.54 0 115.75C0 103.68 8.96 93.08 20.84 91.09C34.83 88.75 45.27 76.92 45.86 62.74C46.56 45.87 53.69 30.1 65.93 18.31C78.21 6.51 94.32 0 111.3 0C137.98 0 161.78 15.99 171.94 40.74C176.59 52.05 187.59 59.35 199.68 59.35C200.4 59.35 201.12 59.32 201.85 59.27C202.83 59.2 203.84 59.16 204.83 59.16C227.16 59.16 245.33 77.33 245.33 99.66C245.33 121.99 227.16 140.16 204.83 140.16C194.1 140.16 184.02 136.08 176.45 128.68C170.71 123.07 163.13 120.13 155.47 120.13C150.75 120.13 145.99 121.24 141.6 123.53C132.25 128.41 121.77 130.99 111.31 130.99C100.85 130.99 90.72 128.56 81.42 123.76C77.05 121.51 72.34 120.42 67.68 120.42C58.89 120.42 50.26 124.29 44.41 131.48C39.61 137.37 32.54 140.75 25.01 140.75H25Z" fill="#ADD1ED"/>
<path d="M212 35.5C219.456 35.5 225.5 29.4559 225.5 22C225.5 14.5442 219.456 8.5 212 8.5C204.544 8.5 198.5 14.5442 198.5 22C198.5 29.4559 204.544 35.5 212 35.5Z" fill="#ADD1ED" stroke="#FBFBFB" stroke-width="3" stroke-miterlimit="10"/>
</svg>
