<svg width="683" height="486" viewBox="0 0 683 486" fill="none" xmlns="http://www.w3.org/2000/svg">
<path d="M0.819603 37.8632C23.3822 42.8243 42.187 60.4479 47.437 84.4775C49.8364 95.4598 49.1606 106.852 45.4768 117.425L45.4757 117.424C40.6199 131.382 44.7727 147.173 55.8168 156.938L56.3483 157.398L56.3485 157.399C65.0053 164.76 76.8128 167.709 87.911 165.284C91.2717 164.55 94.5146 163.349 97.5384 161.707L97.5401 161.706C105.386 157.455 113.837 154.329 122.66 152.401C174.214 141.138 225.319 173.917 236.583 225.47C247.846 277.024 215.067 328.13 163.513 339.393C116.798 349.599 69.3362 323.427 53.0969 278.504L53.0966 278.503C46.8792 261.288 28.6908 251.248 10.8256 255.151C10.412 255.241 10.0336 255.324 9.67775 255.414L9.63694 255.424L9.59687 255.433C9.42549 255.471 9.25381 255.511 9.05833 255.558C8.86953 255.602 8.65598 255.653 8.43488 255.701C5.43086 256.357 2.42753 256.652 -0.528049 256.614L-3.00401 256.582L-2.99537 254.105L-2.21766 40.295L-2.20564 37.1976L0.819603 37.8632Z" fill="#FF9169" stroke="#FBFBFB" stroke-width="5"/>
<path d="M78.1537 449.61C80.8844 456.797 84.3251 463.773 88.3839 470.351L88.3845 470.35C89.9561 472.9 91.2818 475.6 92.3324 478.365C93.3283 480.986 94.0767 483.649 94.5864 486.324L94.974 488.356L97.0424 488.355L468.679 488.355L470.96 488.355L471.168 486.083C472.22 474.563 470.69 462.75 466.426 451.529L466.42 451.511C462.006 439.895 454.761 429.438 445.421 421.194L444.511 420.403C423.82 402.708 394.897 397.263 369.019 406.193C356.76 410.418 343.157 409.386 331.69 403.346L331.685 403.344C328.583 401.718 325.667 399.74 323.012 397.456L323.007 397.452C317.032 392.337 312.377 385.737 309.582 378.382C309.064 377.017 308.604 375.611 308.218 374.197L308.217 374.196C307.22 370.556 306.02 366.919 304.683 363.4C297.544 344.612 285.644 327.744 270.299 314.596L270.297 314.595C219.912 271.492 144.064 277.034 100.45 326.723L99.4255 327.905C70.5875 361.609 62.4343 408.239 78.1537 449.61Z" fill="#ADD1ED" stroke="#FBFBFB" stroke-width="5"/>
<path d="M76.6281 210.307C56.9966 185.124 29.6586 168.68 0.485962 162.892L-2.50021 162.3L-2.49947 165.345L-2.49984 485.856L-2.49988 488.356L0.000166337 488.356L239.973 488.356L243.351 488.355L242.365 485.126C239.423 475.486 234.709 466.383 228.444 458.347C211.432 436.524 184.41 424.496 157.849 427.035C151.886 427.6 146.07 428.878 140.56 430.818C121.438 437.513 99.6812 430.777 86.4641 413.823L86.2083 413.495C73.0241 396.316 72.052 373.45 83.5822 356.598L84.5953 355.092C105.614 323.334 109.923 282.448 96.1602 245.359L95.7154 244.175C91.0629 231.969 84.6395 220.584 76.6281 210.307Z" fill="#EF5350" stroke="#FBFBFB" stroke-width="5"/>
<path d="M318.99 485.641C318.863 484.539 318.759 483.433 318.678 482.322L318.603 481.208L318.603 481.207C315.967 436.529 351.259 398.719 397.114 396.759L397.116 396.76C404.304 396.457 411.5 397.042 418.502 398.511L418.502 398.51L418.514 398.513L418.514 398.514C419.704 398.764 420.9 399.038 422.083 399.349L422.083 399.35C439.185 403.72 454.266 413.057 465.678 426.364L465.678 426.365C467.609 428.613 469.411 430.964 471.063 433.342L471.069 433.35C475.409 439.649 481.97 444.189 489.546 446.125L489.553 446.126C490.01 446.244 490.457 446.35 490.917 446.446L491.623 446.595L492.405 446.731C500.493 448.037 508.892 446.195 515.525 441.673C520.526 438.263 526.114 435.743 532.136 434.161L532.138 434.161C540.288 432.028 548.962 431.816 557.22 433.55C557.945 433.702 558.683 433.869 559.426 434.061L559.605 434.098L559.662 434.113C572.105 437.341 583.013 444.826 590.407 455.225C594.756 461.342 601.227 465.773 608.646 467.664L608.655 467.666C609.112 467.784 609.558 467.89 610.018 467.986C616.936 469.438 623.911 468.645 630.227 465.705C634.365 463.778 638.837 462.706 643.492 462.5L643.5 462.5C646.476 462.379 649.473 462.621 652.385 463.232C652.813 463.322 653.337 463.433 653.871 463.583L653.871 463.582C665.261 466.49 674.169 474.586 678.039 484.984L679.296 488.361L675.691 488.355L321.47 487.855L319.244 487.852L318.99 485.641Z" fill="#FF9169" stroke="#FBFBFB" stroke-width="5"/>
</svg>
