<svg width="508" height="486" viewBox="0 0 508 486" fill="none" xmlns="http://www.w3.org/2000/svg">
<path d="M249.694 383.263L249.722 383.247C224.191 376.151 206.115 353.599 204.736 327.113L204.707 326.535C203.566 298.168 184.46 274.024 157.143 266.431C152.424 265.12 147.559 264.338 142.629 264.131C135.359 263.797 128.127 262.642 121.138 260.699C88.3978 251.599 62.4322 225.643 53.3704 192.961C46.435 167.924 49.6409 141.692 62.4349 119.074C75.2288 96.4571 96.0463 80.1787 121.083 73.2433C138.118 68.525 156.101 68.5118 173.055 73.2242C205.774 82.318 231.739 108.274 240.823 140.962C242.869 148.3 244.033 155.82 244.304 163.305C245.382 191.726 264.492 215.943 291.897 223.56L292.426 223.707C320.091 231.159 348.995 219.883 364.329 195.644C391.247 153.059 437.2 126.073 487.23 123.471C494.525 123.085 501.794 123.212 509 123.845L509 432.298C507.124 432.464 505.237 432.596 503.341 432.695C486.54 433.583 469.876 431.754 453.804 427.287C426.773 419.774 402.329 405.094 383.059 384.87C374.954 376.348 364.678 370.166 353.367 367.023C335.178 361.967 315.727 365.04 300.01 375.444C290.897 381.486 280.583 384.842 269.403 385.416C262.726 385.769 256.088 385.04 249.694 383.263Z" fill="#F0968A"/>
</svg>
